<svg width="34" height="34" viewBox="0 0 34 34" fill="none" xmlns="http://www.w3.org/2000/svg">
<g filter="url(#filter0_d_37061_1877)">
<rect x="4" width="26" height="26" rx="13" fill="#F4F4F4"/>
</g>
<g filter="url(#filter1_d_37061_1877)">
<path fill-rule="evenodd" clip-rule="evenodd" d="M18.4299 14.9678C19.7917 14.4057 20.7501 13.0648 20.7501 11.5C20.7501 9.42893 19.0712 7.75 17.0001 7.75C14.929 7.75 13.2501 9.42893 13.2501 11.5C13.2501 13.0647 14.2085 14.4056 15.5702 14.9677C14.1756 15.1999 12.8926 15.7659 11.8083 16.5806L13.1899 18.4194C14.2512 17.6221 15.5687 17.15 16.9999 17.15C18.431 17.15 19.7485 17.6221 20.8098 18.4194L22.1914 16.5806C21.1072 15.766 19.8244 15.2 18.4299 14.9678Z" fill="black"/>
</g>
<defs>
<filter id="filter0_d_37061_1877" x="0" y="0" width="34" height="34" filterUnits="userSpaceOnUse" color-interpolation-filters="sRGB">
<feFlood flood-opacity="0" result="BackgroundImageFix"/>
<feColorMatrix in="SourceAlpha" type="matrix" values="0 0 0 0 0 0 0 0 0 0 0 0 0 0 0 0 0 0 127 0" result="hardAlpha"/>
<feOffset dy="4"/>
<feGaussianBlur stdDeviation="2"/>
<feComposite in2="hardAlpha" operator="out"/>
<feColorMatrix type="matrix" values="0 0 0 0 0 0 0 0 0 0 0 0 0 0 0 0 0 0 0.25 0"/>
<feBlend mode="normal" in2="BackgroundImageFix" result="effect1_dropShadow_37061_1877"/>
<feBlend mode="normal" in="SourceGraphic" in2="effect1_dropShadow_37061_1877" result="shape"/>
</filter>
<filter id="filter1_d_37061_1877" x="7.80835" y="7.75" width="18.3831" height="18.6694" filterUnits="userSpaceOnUse" color-interpolation-filters="sRGB">
<feFlood flood-opacity="0" result="BackgroundImageFix"/>
<feColorMatrix in="SourceAlpha" type="matrix" values="0 0 0 0 0 0 0 0 0 0 0 0 0 0 0 0 0 0 127 0" result="hardAlpha"/>
<feOffset dy="4"/>
<feGaussianBlur stdDeviation="2"/>
<feComposite in2="hardAlpha" operator="out"/>
<feColorMatrix type="matrix" values="0 0 0 0 0 0 0 0 0 0 0 0 0 0 0 0 0 0 0.25 0"/>
<feBlend mode="normal" in2="BackgroundImageFix" result="effect1_dropShadow_37061_1877"/>
<feBlend mode="normal" in="SourceGraphic" in2="effect1_dropShadow_37061_1877" result="shape"/>
</filter>
</defs>
</svg>
