<svg width="1280" height="524" fill="none" xmlns="http://www.w3.org/2000/svg"><path fill="#073042" d="M0 0h1280v524H0z"/><path opacity=".2" fill-rule="evenodd" clip-rule="evenodd" d="M768.996 241.628c0 3.732-.128 7.433-.38 11.101V402H449.379V252.709a161.985 161.985 0 0 1 0-22.162V82.379h148.506a162.689 162.689 0 0 1 22.226 0h148.505v148.149c.252 3.668.38 7.369.38 11.1zm-1.88-78.124v53.572a158.292 158.292 0 0 0-18.559-53.572h18.559zm0 67.077a156.925 156.925 0 0 0-20.283-67.077h-57.367v77.746h77.65v-10.669zm0-68.956h-19.634c-13.956-23.994-33.997-44.027-58.015-57.998V83.879h77.649v77.746zm-21.372 0a159.106 159.106 0 0 0-56.277-56.259v56.259h56.277zm-58.157-77.746v18.672a159.173 159.173 0 0 0-53.963-18.672h53.963zm0 20.397c-20.152-11.501-43.077-18.715-67.528-20.397h-10.122v77.746h77.65v-57.349zM530.408 83.879h53.965a159.167 159.167 0 0 0-53.965 18.673V83.879zm67.529 0c-24.451 1.682-47.377 8.896-67.529 20.397v57.349h77.65V83.879h-10.121zm-69.409 0v19.749c-24.017 13.971-44.058 34.004-58.013 57.997h-19.636V83.879h77.649zm0 21.488a159.098 159.098 0 0 0-56.275 56.258h56.275v-56.258zm-77.649 58.137h18.56a158.312 158.312 0 0 0-18.56 53.581v-53.581zm0 79.625v9.528a156.937 156.937 0 0 0 20.931 68.218h56.719v-77.746h-77.65zm0 77.746v-54.703a158.326 158.326 0 0 0 19.198 54.703h-19.198zm0 1.879h20.294a160.623 160.623 0 0 0 57.356 56.875V400.5h-77.65v-77.746zm79.529 77.746v-19.795a159.238 159.238 0 0 0 62.911 19.795h-62.911zm0-21.52c22.91 13.076 49.404 20.61 77.65 20.774v-77h-77.65v56.226zm157.179 21.52h-62.909a159.249 159.249 0 0 0 62.909-19.794V400.5zm-77.649-.746c28.245-.163 54.74-7.698 77.649-20.773v-56.227h-77.649v77zm79.528.746v-20.871a160.61 160.61 0 0 0 57.357-56.875h20.293V400.5h-77.65zm0-22.609a159.12 159.12 0 0 0 55.61-55.137h-55.61v55.137zm0-57.016h56.72a156.913 156.913 0 0 0 20.93-68.199v-9.547h-77.65v77.746zm77.65-54.695a158.324 158.324 0 0 1-19.197 54.695h19.197V266.18zM472.92 322.754a159.105 159.105 0 0 0 55.609 55.136v-55.136H472.92zm-1.756-159.25a156.903 156.903 0 0 0-20.285 67.096v10.65h77.65v-77.746h-57.365zm59.244 0h77.65v5.119H548.081v72.627h-17.673v-77.746zm17.673 79.625h-17.673v77.746h77.65v-77.746h-34.031v72.059h-25.946v-72.059zm25.946-1.879h34.031v-46.696h-34.031v46.696zm35.911-72.627H673.3v72.627h14.287v-77.746h-77.649v5.119zm63.362 74.506h14.287v77.746h-77.649v-77.746h37.415v72.059H673.3v-72.059zm-25.947-1.879v-46.696h-37.415v46.696h37.415z" fill="#fff"/></svg>